HIERARCHY
ROOT RootJoint
{
    OFFSET   0.000000   0.000000   0.000000
    CHANNELS 6 Xposition Yposition Zposition Xrotation Yrotation Zrotation
    JOINT pelvis_lowerback
    {
        OFFSET   0.000000   0.093605   0.000000
        CHANNELS 3 Xrotation Yrotation Zrotation
        JOINT lowerback_torso
        {
            OFFSET   0.000000   0.100000   0.000000
            CHANNELS 3 Xrotation Yrotation Zrotation
            JOINT torso_head
            {
                OFFSET   0.000000   0.282350   0.000000
                CHANNELS 3 Xrotation Yrotation Zrotation
                End Site
                {
                    OFFSET   0.000000   0.192650   0.000000
                }
            }
            JOINT rTorso_Clavicle
            {
                OFFSET  -0.001000   0.157500   0.000000
                CHANNELS 3 Xrotation Yrotation Zrotation
                JOINT rShoulder
                {
                    OFFSET  -0.117647   0.000000   0.000000
                    CHANNELS 3 Xrotation Yrotation Zrotation
                    JOINT rElbow
                    {
                        OFFSET  -0.245000   0.000000   0.000000
                        CHANNELS 3 Xrotation Yrotation Zrotation
                        JOINT rWrist
                        {
                            OFFSET  -0.240000   0.000000   0.000000
                            CHANNELS 3 Xrotation Yrotation Zrotation
                            End Site
                            {
                                OFFSET  -0.116353  -0.002500   0.000000
                            }
                        }
                    }
                }
            }
            JOINT lTorso_Clavicle
            {
                OFFSET   0.001000   0.157500   0.000000
                CHANNELS 3 Xrotation Yrotation Zrotation
                JOINT lShoulder
                {
                    OFFSET   0.117647   0.000000   0.000000
                    CHANNELS 3 Xrotation Yrotation Zrotation
                    JOINT lElbow
                    {
                        OFFSET   0.245000   0.000000   0.000000
                        CHANNELS 3 Xrotation Yrotation Zrotation
                        JOINT lWrist
                        {
                            OFFSET   0.240000   0.000000   0.000000
                            CHANNELS 3 Xrotation Yrotation Zrotation
                            End Site
                            {
                                OFFSET   0.116353  -0.002500   0.000000
                            }
                        }
                    }
                }
            }
        }
    }
    JOINT rHip
    {
        OFFSET  -0.100000  -0.051395   0.000000
        CHANNELS 3 Xrotation Yrotation Zrotation
        JOINT rKnee
        {
            OFFSET   0.000000  -0.410000   0.000000
            CHANNELS 3 Xrotation Yrotation Zrotation
            JOINT rAnkle
            {
                OFFSET   0.000000  -0.390000   0.000000
                CHANNELS 3 Xrotation Yrotation Zrotation
                JOINT rToeJoint
                {
                    OFFSET   0.000000  -0.050000   0.130000
                    CHANNELS 3 Xrotation Yrotation Zrotation
                    End Site
                    {
                        OFFSET  -0.010000   0.002000   0.060000
                    }
                }
            }
        }
    }
    JOINT lHip
    {
        OFFSET   0.100000  -0.051395   0.000000
        CHANNELS 3 Xrotation Yrotation Zrotation
        JOINT lKnee
        {
            OFFSET   0.000000  -0.410000   0.000000
            CHANNELS 3 Xrotation Yrotation Zrotation
            JOINT lAnkle
            {
                OFFSET   0.000000  -0.390000   0.000000
                CHANNELS 3 Xrotation Yrotation Zrotation
                JOINT lToeJoint
                {
                    OFFSET   0.000000  -0.050000   0.130000
                    CHANNELS 3 Xrotation Yrotation Zrotation
                    End Site
                    {
                        OFFSET   0.010000   0.002000   0.060000
                    }
                }
            }
        }
    }
}
MOTION
Frames: 5
Frame Time:   0.008333
 -2.165536   0.903352   4.169033  -0.655784  18.640070  -1.043722  11.277711  -1.950999  -0.603884  -3.110241  -1.897641   2.552812  -2.100020  -0.974081   0.798889  -4.094662 -13.226158   0.971989 -27.407323  -9.657643  12.088463   0.001748  20.432222  -0.002419   1.301017  -0.643829 -24.369182  -1.570247   8.117698  -5.056384 -20.816415  12.987306 -20.704922  -0.000455 -20.704926  -0.000600  -2.504939  -1.910862  26.245422 -20.178240  -1.427606 -11.844014  96.433512   0.025657  -0.012281   1.379293  -2.291819   6.751812  -1.654118  -0.000915   0.000746 -13.224749  -1.668375   0.734499  43.405649   0.005009   0.002426  -4.542709   1.914717  -0.659329 -38.048882  -0.012089   0.008919
 -2.166544   0.910583   4.171694  -0.380295  18.545939  -1.359191  11.124838  -1.913246  -0.349238  -3.140426  -1.859433   2.441435  -1.954626  -1.058357   0.720739  -3.877336 -13.241807   1.118560 -26.959364  -9.737996  12.366896   0.002645  20.810383  -0.004229   1.358768  -0.597019 -24.320143  -1.333319   8.290034  -5.048886 -20.598995  13.076598 -20.903491  -0.000083 -20.866622   0.000106  -2.464529  -1.848670  26.036073 -20.469959  -1.719515 -11.198974  93.087970   0.028801  -0.020862   1.791072  -2.315690   6.851814  -1.618566  -0.000876   0.000830 -12.749388  -1.668385   1.179232  41.674882   0.006442   0.000756  -1.952985   1.665589  -0.904092 -40.299470  -0.012240   0.008594
 -2.167810   0.918491   4.174340   0.004169  18.427061  -1.719430  10.910912  -1.871025  -0.093010  -3.204693  -1.817649   2.341280  -1.827435  -1.138707   0.633734  -3.665355 -13.268400   1.246189 -26.530356  -9.821748  12.641120   0.003191  21.164337  -0.005453   1.435780  -0.512594 -24.178202  -1.101529   8.480122  -4.979284 -20.392674  13.167070 -21.065510   0.000067 -21.021529   0.000625  -2.416206  -1.812934  25.817876 -20.788735  -2.025789 -10.454793  89.408756   0.033842  -0.030646   2.160887  -2.336320   6.945667  -1.571524  -0.000909   0.001018 -12.264146  -1.671342   1.633827  39.634332   0.008382  -0.000132   0.957131   1.434442  -1.001643 -42.866532  -0.010179   0.010784
 -2.169175   0.926479   4.176816   0.437071  18.280097  -2.085628  10.695106  -1.823064   0.170807  -3.271163  -1.768919   2.254498  -1.715260  -1.214056   0.547183  -3.467750 -13.293208   1.317561 -26.133151  -9.887857  12.876589   0.003360  21.496975  -0.006313   1.510365  -0.428453 -24.031730  -0.882297   8.670204  -4.854301 -20.204778  13.247785 -21.183612   0.000027 -21.168775   0.001026  -2.367236  -1.785088  25.643235 -21.148987  -2.325297  -9.712932  85.807275   0.039692  -0.037109   2.498204  -2.353904   7.033670  -1.538638  -0.000882   0.001057 -11.775040  -1.708729   2.118272  37.459791   0.011516  -0.000020   4.098828   1.101691  -1.416854 -45.626544  -0.015243   0.010729
 -2.170742   0.934897   4.179058   0.877122  18.195201  -2.380043  10.531033  -1.809716   0.378429  -3.324830  -1.745821   2.170680  -1.613367  -1.285576   0.466754  -3.283302 -13.323146   1.388621 -25.762912  -9.951344  13.092362   0.003410  21.807924  -0.006969   1.583431  -0.343173 -23.919813  -0.684482   8.836554  -4.708950 -20.039696  13.306792 -21.269327  -0.000071 -21.311074   0.001373  -2.309887  -1.780349  25.518612 -21.506677  -2.620324  -9.031418  82.368766   0.043889  -0.041748   2.810435  -2.369058   7.116527  -1.510792  -0.000831   0.001052 -11.374291  -1.707085   2.495504  35.416079   0.012581  -0.000636   6.907680   0.872213  -1.503522 -45.501264  -0.012208   0.008388
